/* XPM */
static char *bash_karaoke_icon[] = {
/* columns rows colors chars-per-pixel */
"48 48 256 2",
"   c #010101",
".  c #0D0905",
"X  c #05090A",
"o  c #0B0B0B",
"O  c #04070A",
"+  c #150C05",
"@  c #140E0B",
"#  c #1B0E07",
"$  c #1E1103",
"%  c #1A170C",
"&  c #080A12",
"*  c #120F11",
"=  c #0E1112",
"-  c #141414",
";  c #1B1414",
":  c #1B1B1B",
">  c #161717",
",  c #0B1103",
"<  c #2C1A0A",
"1  c #281605",
"2  c #351D0A",
"3  c #371A06",
"4  c #231C14",
"5  c #281C19",
"6  c #341D15",
"7  c #320C00",
"8  c #1C241F",
"9  c #2A211B",
"0  c #2E281D",
"q  c #352314",
"w  c #392615",
"e  c #3A2919",
"r  c #3E2D0E",
"t  c #1B1D24",
"y  c #151B21",
"u  c #19262B",
"i  c #1A2F32",
"p  c #232323",
"a  c #2B2B2B",
"s  c #252C2D",
"d  c #352C29",
"f  c #382931",
"g  c #2C353B",
"h  c #333333",
"j  c #393637",
"k  c #2E3525",
"l  c #401700",
"z  c #541D00",
"x  c #6B1E00",
"c  c #43250C",
"v  c #472309",
"b  c #572804",
"n  c #5C320D",
"m  c #4D2C11",
"M  c #412614",
"N  c #522E12",
"B  c #4A3418",
"V  c #523115",
"C  c #5A3415",
"Z  c #553318",
"A  c #563919",
"S  c #4A3C0C",
"D  c #662A03",
"F  c #663704",
"G  c #773503",
"H  c #6A3C15",
"J  c #653A16",
"K  c #773D13",
"L  c #632A12",
"P  c #422B24",
"I  c #4C3A30",
"U  c #673921",
"Y  c #714118",
"T  c #79451A",
"R  c #764618",
"E  c #714917",
"W  c #4B5534",
"Q  c #504534",
"!  c #784724",
"~  c #684B38",
"^  c #6D5034",
"/  c #393945",
"(  c #3A4249",
")  c #38475A",
"_  c #3A5568",
"`  c #454443",
"'  c #4C4B4D",
"]  c #484B55",
"[  c #555754",
"{  c #715B43",
"}  c #6E644F",
"|  c #545D67",
" . c #576A6F",
".. c #6B6A69",
"X. c #777777",
"o. c #6D7070",
"O. c #962D06",
"+. c #823911",
"@. c #9A3907",
"#. c #CE3A00",
"$. c #894804",
"%. c #974608",
"&. c #874B19",
"*. c #924E18",
"=. c #95531B",
"-. c #9D571E",
";. c #9E581E",
":. c #94581C",
">. c #925410",
",. c #AA4B09",
"<. c #A9550D",
"1. c #B85907",
"2. c #A25A1F",
"3. c #A8571A",
"4. c #B95C15",
"5. c #B1480F",
"6. c #B8671A",
"7. c #B76510",
"8. c #945829",
"9. c #895937",
"0. c #8D502D",
"q. c #AA5F21",
"w. c #A35D2E",
"e. c #BB5F22",
"r. c #816031",
"t. c #9A6D31",
"y. c #AD6121",
"u. c #BB6722",
"i. c #BD6A23",
"p. c #BA6526",
"a. c #A56A39",
"s. c #BE7031",
"d. c #B1732C",
"f. c #C64900",
"g. c #D64B00",
"h. c #CB5400",
"j. c #C75A00",
"k. c #D45700",
"l. c #DB5300",
"z. c #DA5B01",
"x. c #D85E09",
"c. c #C55A15",
"v. c #DC5613",
"b. c #E34E00",
"n. c #E34400",
"m. c #E45401",
"M. c #E45900",
"N. c #EE5900",
"B. c #F45500",
"V. c #F45C00",
"C. c #FF5D00",
"Z. c #E45E16",
"A. c #CA6801",
"S. c #D86706",
"D. c #CC700F",
"F. c #C96F14",
"G. c #DA6713",
"H. c #D67212",
"J. c #E66805",
"K. c #F26200",
"L. c #F36F00",
"P. c #F76A05",
"I. c #E97608",
"U. c #FF7501",
"Y. c #FE7C00",
"T. c #F77A06",
"R. c #FB7A1E",
"E. c #C46C24",
"W. c #C86826",
"Q. c #CD7225",
"!. c #D27427",
"~. c #D57628",
"^. c #DD6F25",
"/. c #E17D2D",
"(. c #8B684F",
"). c #A76A4B",
"_. c #827C78",
"`. c #9A746F",
"'. c #CD800B",
"]. c #FE8302",
"[. c #FE8903",
"{. c #FF8C0D",
"}. c #F68304",
"|. c #FF9507",
" X c #F88313",
".X c #EF921F",
"XX c #FF9A1A",
"oX c #E78511",
"OX c #FFA00A",
"+X c #E88628",
"@X c #FC8927",
"#X c #FB9726",
"$X c #FB8E30",
"%X c #F89334",
"&X c #EA9237",
"*X c #FFA739",
"=X c #8F8A7A",
"-X c #C38052",
";X c #F29941",
":X c #F1A352",
">X c #C89466",
",X c #F3AD72",
"<X c #FFC957",
"1X c #FFD16F",
"2X c #F6C573",
"3X c #557588",
"4X c #65788E",
"5X c #7A9597",
"6X c #758490",
"7X c #6B83A2",
"8X c #7EAAD1",
"9X c #848484",
"0X c #8C8D8C",
"qX c #8A878A",
"wX c #889289",
"eX c #929292",
"rX c #9A9999",
"tX c #9B9794",
"yX c #8D9192",
"uX c #989DA0",
"iX c #95ACA5",
"pX c #ABABAB",
"aX c #B6B7B8",
"sX c #A0A9B4",
"dX c #F6AB82",
"fX c #C3BABC",
"gX c #CAB2A4",
"hX c #FEC292",
"jX c #FAD39C",
"kX c #E4C88A",
"lX c #FED8B5",
"zX c #E3C5A5",
"xX c #FFE7B9",
"cX c #FFE9AB",
"vX c #92AAC7",
"bX c #AAB7C9",
"nX c #CDBEC2",
"mX c #B5CACE",
"MX c #A9D4F0",
"NX c #C3C3C2",
"BX c #CACACA",
"VX c #D8D7D7",
"CX c #C4C1DC",
"ZX c #FFD2C1",
"AX c #E0DEDD",
"SX c #F6DCD7",
"DX c #FDE9C9",
"FX c #FFF2CE",
"GX c #FCE8D7",
"HX c #FCF5D6",
"JX c #FADCE3",
"KX c #DFE0E0",
"LX c #E7E7E7",
"PX c #FEFEFE",
"IX c #F3F4F4",
"UX c #FCEDE1",
/* pixels */
"                                                                                                ",
"  a p 8 p 5 p p p a a a a a a a a j h j h h j h h j h h a a a : : : p p : p u a a a a a a h j   ",
"  p : > - > > : p p p a a a a a a j h a a h h h h h h a p 8 > > > > > > > > : p p a a a a j j   ",
"  : > y.q.q.&.> : p p p p : p a a a a a a a a h a a a p t a P ^ 8.d.a.{ ` j > : p a a a a h h   ",
"  > * ~.~.~.8.@ > > > > : > t p p p p u 8 5 p p p a p : t P %.%X*X|.].[.S.c - - > p p a d h j   ",
"  > * ~.~.~.q.6 q q w q w q e e e 9 5 e w w 5 : p p : t P J.1XDXGXGX&XU.[.J.M u > : p a a a j   ",
"  : = ~.~.~.~.~.~.~.~.~.~.~.~.~.~.A e ~.~.~.! > t : > 4 1.<XDXlXSXUX$XY.[.Y.1.Z : > p a a a h   ",
"  > o ~.~.~.~.~.~.~.~.~.~.~.~.~.~.A e ~.~.~.T - : > - F ].GXJXSXDX,XP.Y. XT.M.%.5 > 8 p a a a   ",
"  > * ~.~.~.~.~.~.~.~.~.~.~.~.~.~.C w ~.~.~.T - : > = 1.].jXDXlX:XL.U.Y.].].l.c.6 - : p a a a   ",
"  > = ~.~.~.u.H Y Y Y Y K 8.~.~.~.Z q ~.~.~.T - > - u F.].I.+XL.P.Y.].].[.I.g.x.$ - : p a a a   ",
"  > o ~.~.~.2.o @ - - - * C ~.~.~.Z q ~.~.~.T - > - i F.].Y.T.Y.Y.}.].].{.S.m.x.$ o : p p a a   ",
"  > o ~.~.~.;.o > : : > > C ~.~.!.Z q ~.~.~.Y - ; - i :.[.].Y.}.}.}.].{.L.h.z.j.4 - > : p p p   ",
"  > o ~.~.~.;.o > p p : - C ~.~.~.V q !.~.~.T - > > t L U.{.[.[.].Y.].I.h.x.x.2.5 * > > > > u   ",
"  > o ~.~.~.2.o > : 8 : > C ~.~.~.V 6 ~.~.~.T @ ; > * 5 %.K.J.T.oXI.z.1.m.M.E.~ o = * : : = ;   ",
"  > o ~.~.~.-.o > > > > * C ~.~.~.V < 8.q.8.C - : > - u h <.V.b.1.l.m.j.M.!.! @ @ j _.BX=X/ o   ",
"  > o ~.~.~.-.  o o o @ o C ~.~.~.V * @ o o * - - * > &.f.G *.W.J.C.V.x.e.~ @ - yXLXVXLX0X' -   ",
"  - o ~.~.~.E.-.=.=.-.:.:.y.~.~.~.V = w &.J o = o 4 :.K.V.W.( ( K $.J M e > = rXIXNX..KXBX[ =   ",
"  > o ~.~.~.~.~.~.~.~.~.~.~.~.~.~.V % Q.~.~.V o 8 &.T.k.B.c.' | 9.B i y @ - j VXuXX.0X..LXeX*   ",
"  > o ~.~.~.~.~.~.~.~.~.~.~.~.~.~.Z % ~.~.~.J X 3 >XK.4.c.G.( $.V.4.d @ - - ..0XX.0XX.eX' j >   ",
"  > o ~.~.~.~.~.~.~.~.~.~.~.~.~.~.Z > H E.;., % 8.kXP.t.w.).7XW.].^.1 o o o =XPX6X0XeX' p - :   ",
"  : - o o o o o o o @ = = * = @ - > : - = o   1 >X2XN.(.f.{ 3X-X#Xh.Y X * ] qXfXNX' g - > 5 p   ",
"  : : > : > > : : : : : : : > > : : p 5 > = , Y zX;X#.{ k.o.) F.XXl.>.k 0XmX .> j 5 ; ; p p a   ",
"  a a p a p p p a a a a a a p p a a a p : - o $.SX@Xg.^ ).5X/ T.|.G.U iXgXA 8 @ ; > : t p s a   ",
"  h h h a h h h a a h a a a h h h a a p t - 4 7.HX Xh.9.4XyXI }.+X(.CXyX%.,.% > : 8 p p p a a   ",
"  > j h h h h h h h h h h h h j h h a p 9 - % A.FX XJ.8._ ~ 4.1.=XMX..%.K.<.% > p p p a a a o   ",
"  o > j j j j h h h h a a h j h j j a p 8 > , S.cX$XP.3.).e.9.vXvXU f.B.z.b > > 5 p p p a o     ",
"  o o > j j h j h h h a a h j j j h a a 8 > $ I.2X$X/.d.S r.mX7XD f.A.5.Z > - : u p p p o       ",
"  o o o = h j h h a a a a a h j j h a a p > 9 D.XX%XS.F.6XbXQ 1 T $.n 2 ; - > p p p :           ",
"  o o o X = o p h a a a a a h h h j h h p : s d.XXR.n.f...~ D C V N Q : o - > p * O n H   O     ",
"    o o o o o o o X > a a a h h h h h a a 5 t ! U.l.z.<.N G D ~.~.~.=.; . o O     N !.~.J   X   ",
"    X o o o o o o           * : a h h a p u > > %.Z.G.R K 6 v !.~.~.=.c O       m ~.~.~.~.m O   ",
"      o o o o X o             o o o O O O s f vXW O.+.F >.; > !.!.!.*.b f     m !.~.~.~.2..     ",
"      o o o o o o             X . O   O   } bX`.D.+X.XS.&.* O ~.~.~.*.b m O c !.~.~.~.2..   X   ",
"      o o o . o o       , W [ * O O . = X.mX] J.[.[.].g.O.-   !.~.~.*.z l c !.~.~.~.2.. O . X   ",
"      o o o . O       > 0XPXPXKX| O g sXwXX S .XhXU.I.h.D     ~.~.~.*.l F Q.~.~.~.q.X           ",
"      o o o O         X.PXPXPXPXLX..aX] O . $.jXdXY.N.h.r X   ~.~.~.*.b Q.~.~.~.q.+             ",
"      o o o O         eXPXIXIXBXqXeXs   . k 6.FX XY.l.h.1     ~.~.~.p.Q.~.~.~.~.i.1             ",
"      o o o           qXPXLXIXeX..pX| .   J ,XxXU.I.z.4.5     ~.~.~.~.~.~.~.~.~.~.i.$           ",
"      O X X           a BXIXAXVXNXBXrX= > <.lXhX].H.S.w.@     ~.~.~.~.~.~.p.E.!.~.~.u.$         ",
"          X . . O       ' LXVXNXaXNXtXO d ~.xX%XI.c.G.&.:     ~.~.~.~.~.E.b 3 W.~.~.~.u.+       ",
"            . X o         ..VXBXaXBXX.= I @X%X[.S.v.G.n o     ~.~.~.~.E.D D 1 < W.~.~.~.p.+     ",
"          X o o . X       o ` tXpXX.p o y.#X].~.4.N.G.e o   O ~.~.~.E.n G K 3 . < Q.~.~.Q.2     ",
"          X o o o X     *     - d * O o 7.Y.S.F.A.N.p.< O     ~.~.E.2 e 3 6   O   < Q.!.v       ",
"          . o o o                 o o   1 @.b.B.N.Z.T + O     ~.p.1 o o o O         3 c     O   ",
"          o o o o O                       # w J &.G q         E.1                         O X   ",
"        X o o o o o o o O           O       . s I I =         1                 . X o O o X o   ",
"  o O X O o o o o o o o o O         O                                           o o o o o o o   ",
"                                                                                                "
};
