<?xml version="1.0" encoding="UTF-8" ?>
<!DOCTYPE svg PUBLIC "-//W3C//DTD SVG 1.1//EN" "http://www.w3.org/Graphics/SVG/1.1/DTD/svg11.dtd">
<svg width="48pt" height="48pt" viewBox="0 0 48 48" version="1.1" xmlns="http://www.w3.org/2000/svg">
<g id="#030303ff">
<path fill="#030303" opacity="1.00" d=" M 0.00 0.00 L 48.00 0.00 L 48.00 48.00 L 0.00 48.00 L 0.00 0.00 M 0.85 0.84 C 1.05 7.91 1.45 15.00 0.96 22.06 C 1.53 25.89 5.28 28.61 8.96 29.09 C 12.94 29.74 16.78 31.37 20.88 31.09 C 20.85 31.62 20.80 32.70 20.78 33.24 L 21.53 32.74 C 21.80 34.18 21.99 35.62 22.13 37.08 L 21.60 37.89 C 20.75 39.43 20.37 41.15 20.01 42.85 C 21.75 43.99 23.81 44.92 25.92 44.25 C 28.19 40.61 28.27 35.98 28.35 31.80 C 26.85 31.75 25.34 31.66 23.89 31.27 C 25.48 31.31 28.29 31.32 28.08 29.04 C 29.67 28.20 31.18 27.22 32.59 26.11 C 33.17 26.45 34.32 27.12 34.90 27.46 C 34.88 27.83 34.85 28.57 34.83 28.94 C 33.48 28.76 32.12 28.66 30.75 28.65 C 31.05 34.15 31.00 39.66 31.05 45.17 C 33.63 43.50 35.46 40.94 37.98 39.21 C 39.99 40.17 41.36 42.15 43.04 43.59 C 43.87 42.78 44.66 41.95 45.42 41.08 C 43.85 39.44 42.13 37.89 40.91 35.96 C 41.89 33.93 43.82 32.50 45.37 30.91 C 44.92 30.32 44.02 29.14 43.56 28.55 C 43.07 25.66 47.89 25.06 47.20 21.97 C 46.94 20.64 47.46 18.23 45.75 17.82 C 45.76 17.11 45.78 15.69 45.79 14.99 C 47.88 10.63 46.89 5.59 47.05 0.93 C 42.03 0.72 37.05 1.56 32.04 1.25 C 23.63 0.61 15.20 0.98 6.78 1.07 C 4.81 0.85 2.83 0.76 0.85 0.84 M 18.23 41.23 C 19.34 39.44 17.73 37.09 18.80 35.19 C 16.86 35.04 15.02 33.19 13.13 33.91 C 8.25 36.15 14.38 43.91 18.23 41.23 Z" />
</g>
<g id="#161616ff">
<path fill="#161616" opacity="1.00" d=" M 0.85 0.84 C 2.83 0.76 4.81 0.85 6.78 1.07 C 8.15 2.38 9.46 3.76 10.86 5.04 C 9.61 5.04 8.36 5.05 7.11 5.07 C 6.96 4.66 6.66 3.83 6.51 3.41 C 5.39 3.27 4.27 3.15 3.14 3.05 C 2.92 8.69 3.02 14.33 3.02 19.98 C 7.70 19.98 12.38 20.10 17.05 19.89 L 17.83 19.87 C 17.65 17.86 17.84 15.84 18.38 13.89 C 19.78 14.32 21.21 14.66 22.65 14.96 C 22.58 11.95 22.68 8.95 22.85 5.95 C 24.64 5.73 26.44 5.58 28.23 5.76 C 27.03 8.60 26.68 12.03 29.10 14.36 C 27.61 15.22 26.30 16.39 25.36 17.84 C 24.73 19.11 24.14 20.41 23.73 21.77 C 22.53 24.86 23.00 28.17 23.89 31.27 C 23.09 31.75 22.31 32.24 21.53 32.74 L 20.78 33.24 C 20.80 32.70 20.85 31.62 20.88 31.09 C 20.79 28.15 20.06 25.29 19.48 22.42 C 13.33 21.68 7.13 22.47 0.96 22.06 C 1.45 15.00 1.05 7.91 0.85 0.84 M 20.24 16.39 C 18.02 16.64 18.94 20.65 21.01 19.87 C 23.19 19.92 22.31 15.52 20.24 16.39 Z" />
<path fill="#161616" opacity="1.00" d=" M 7.10 9.27 C 9.30 9.34 11.51 9.34 13.71 9.30 C 13.68 11.52 13.69 13.74 13.76 15.96 C 11.48 16.52 9.14 16.35 6.82 16.19 C 6.64 13.88 6.54 11.54 7.10 9.27 Z" />
</g>
<g id="#272624ff">
<path fill="#272624" opacity="1.00" d=" M 6.78 1.07 C 15.20 0.98 23.63 0.61 32.04 1.25 C 37.05 1.56 42.03 0.72 47.05 0.93 C 46.89 5.59 47.88 10.63 45.79 14.99 C 43.15 13.42 39.74 14.94 38.85 17.82 C 38.12 19.70 36.80 21.19 35.11 22.27 C 34.41 20.76 33.75 19.23 33.11 17.69 C 32.60 17.99 31.57 18.59 31.06 18.89 L 30.14 18.83 C 30.08 17.68 30.01 16.52 29.92 15.37 C 32.29 16.15 35.11 17.06 37.33 15.37 C 40.62 13.41 40.67 8.57 38.53 5.75 C 35.90 2.69 30.91 2.87 28.23 5.76 C 26.44 5.58 24.64 5.73 22.85 5.95 C 21.57 6.03 20.29 6.07 19.01 6.07 C 19.00 8.69 18.99 11.33 18.38 13.89 C 17.84 15.84 17.65 17.86 17.83 19.87 L 17.05 19.89 C 17.44 15.26 17.39 10.62 17.15 5.98 C 13.90 5.99 10.65 6.00 7.41 5.90 L 7.11 5.07 C 8.36 5.05 9.61 5.04 10.86 5.04 C 9.46 3.76 8.15 2.38 6.78 1.07 Z" />
</g>
<g id="#d57628ff">
<path fill="#d57628" opacity="1.00" d=" M 3.14 3.05 C 4.27 3.15 5.39 3.27 6.51 3.41 C 6.66 3.83 6.96 4.66 7.11 5.07 L 7.41 5.90 C 10.65 6.00 13.90 5.99 17.15 5.98 C 17.39 10.62 17.44 15.26 17.05 19.89 C 12.38 20.10 7.70 19.98 3.02 19.98 C 3.02 14.33 2.92 8.69 3.14 3.05 M 7.10 9.27 C 6.54 11.54 6.64 13.88 6.82 16.19 C 9.14 16.35 11.48 16.52 13.76 15.96 C 13.69 13.74 13.68 11.52 13.71 9.30 C 11.51 9.34 9.30 9.34 7.10 9.27 Z" />
<path fill="#d57628" opacity="1.00" d=" M 19.01 6.07 C 20.29 6.07 21.57 6.03 22.85 5.95 C 22.68 8.95 22.58 11.95 22.65 14.96 C 21.21 14.66 19.78 14.32 18.38 13.89 C 18.99 11.33 19.00 8.69 19.01 6.07 Z" />
<path fill="#d57628" opacity="1.00" d=" M 30.75 28.65 C 32.12 28.66 33.48 28.76 34.83 28.94 C 34.72 31.30 34.75 33.66 34.89 36.02 C 37.96 33.73 40.17 30.42 43.56 28.55 C 44.02 29.14 44.92 30.32 45.37 30.91 C 43.82 32.50 41.89 33.93 40.91 35.96 C 42.13 37.89 43.85 39.44 45.42 41.08 C 44.66 41.95 43.87 42.78 43.04 43.59 C 41.36 42.15 39.99 40.17 37.98 39.21 C 35.46 40.94 33.63 43.50 31.05 45.17 C 31.00 39.66 31.05 34.15 30.75 28.65 Z" />
</g>
<g id="#fc8003ff">
<path fill="#fc8003" opacity="1.00" d=" M 28.23 5.76 C 30.91 2.87 35.90 2.69 38.53 5.75 C 37.80 8.10 37.80 11.06 35.61 12.63 C 33.61 13.69 31.26 13.77 29.10 14.36 C 26.68 12.03 27.03 8.60 28.23 5.76 M 29.01 9.00 C 31.30 9.46 35.12 7.92 33.96 5.06 C 31.29 3.69 28.70 6.33 29.01 9.00 Z" />
<path fill="#fc8003" opacity="1.00" d=" M 31.06 18.89 C 31.57 18.59 32.60 17.99 33.11 17.69 C 33.75 19.23 34.41 20.76 35.11 22.27 C 33.88 23.19 32.63 24.08 31.35 24.91 C 31.07 24.86 30.52 24.77 30.24 24.73 C 30.92 22.85 31.37 20.89 31.06 18.89 Z" />
</g>
<g id="#fbddc1ff">
<path fill="#fbddc1" opacity="1.00" d=" M 29.01 9.00 C 28.70 6.33 31.29 3.69 33.96 5.06 C 35.12 7.92 31.30 9.46 29.01 9.00 Z" />
</g>
<g id="#dc5902ff">
<path fill="#dc5902" opacity="1.00" d=" M 38.53 5.75 C 40.67 8.57 40.62 13.41 37.33 15.37 C 35.11 17.06 32.29 16.15 29.92 15.37 C 30.01 16.52 30.08 17.68 30.14 18.83 C 29.34 18.86 27.73 18.93 26.92 18.97 C 26.82 21.82 27.21 24.65 27.96 27.40 C 27.99 27.81 28.05 28.63 28.08 29.04 C 28.29 31.32 25.48 31.31 23.89 31.27 C 23.00 28.17 22.53 24.86 23.73 21.77 C 23.81 23.67 23.98 25.56 24.23 27.45 C 26.12 24.68 25.64 21.02 25.36 17.84 C 26.30 16.39 27.61 15.22 29.10 14.36 C 31.26 13.77 33.61 13.69 35.61 12.63 C 37.80 11.06 37.80 8.10 38.53 5.75 Z" />
</g>
<g id="#d8d8d8ff">
<path fill="#d8d8d8" opacity="1.00" d=" M 38.85 17.82 C 39.74 14.94 43.15 13.42 45.79 14.99 C 45.78 15.69 45.76 17.11 45.75 17.82 C 45.43 17.92 44.78 18.12 44.46 18.22 C 44.03 17.68 43.19 16.60 42.76 16.06 C 41.48 16.69 40.18 17.28 38.85 17.82 Z" />
<path fill="#d8d8d8" opacity="1.00" d=" M 18.23 41.23 C 14.38 43.91 8.25 36.15 13.13 33.91 C 15.02 33.19 16.86 35.04 18.80 35.19 C 17.73 37.09 19.34 39.44 18.23 41.23 Z" />
</g>
<g id="#c46d25ff">
<path fill="#c46d25" opacity="1.00" d=" M 20.24 16.39 C 22.31 15.52 23.19 19.92 21.01 19.87 C 18.94 20.65 18.02 16.64 20.24 16.39 Z" />
</g>
<g id="#8a8f90ff">
<path fill="#8a8f90" opacity="1.00" d=" M 38.85 17.82 C 40.18 17.28 41.48 16.69 42.76 16.06 C 43.19 16.60 44.03 17.68 44.46 18.22 C 43.40 18.94 42.36 19.67 41.30 20.38 C 40.65 18.89 38.46 18.98 38.91 20.88 C 38.37 21.49 37.81 22.07 37.22 22.62 C 35.69 23.80 34.12 24.93 32.59 26.11 C 31.18 27.22 29.67 28.20 28.08 29.04 C 28.05 28.63 27.99 27.81 27.96 27.40 C 29.07 26.55 30.21 25.73 31.35 24.91 C 32.63 24.08 33.88 23.19 35.11 22.27 C 36.80 21.19 38.12 19.70 38.85 17.82 Z" />
</g>
<g id="#ebcc99ff">
<path fill="#ebcc99" opacity="1.00" d=" M 25.36 17.84 C 25.64 21.02 26.12 24.68 24.23 27.45 C 23.98 25.56 23.81 23.67 23.73 21.77 C 24.14 20.41 24.73 19.11 25.36 17.84 Z" />
</g>
<g id="#1c1c1cff">
<path fill="#1c1c1c" opacity="1.00" d=" M 44.46 18.22 C 44.78 18.12 45.43 17.92 45.75 17.82 C 47.46 18.23 46.94 20.64 47.20 21.97 C 47.89 25.06 43.07 25.66 43.56 28.55 C 40.17 30.42 37.96 33.73 34.89 36.02 C 34.75 33.66 34.72 31.30 34.83 28.94 C 34.85 28.57 34.88 27.83 34.90 27.46 C 36.67 26.42 38.51 24.82 37.22 22.62 C 37.81 22.07 38.37 21.49 38.91 20.88 C 39.51 20.76 40.70 20.51 41.30 20.38 C 42.36 19.67 43.40 18.94 44.46 18.22 Z" />
</g>
<g id="#945a2fff">
<path fill="#945a2f" opacity="1.00" d=" M 26.92 18.97 C 27.73 18.93 29.34 18.86 30.14 18.83 C 29.17 20.73 28.66 22.82 27.68 24.72 C 28.32 24.72 29.60 24.73 30.24 24.73 C 30.52 24.77 31.07 24.86 31.35 24.91 C 30.21 25.73 29.07 26.55 27.96 27.40 C 27.21 24.65 26.82 21.82 26.92 18.97 Z" />
</g>
<g id="#596976ff">
<path fill="#596976" opacity="1.00" d=" M 30.14 18.83 L 31.06 18.89 C 31.37 20.89 30.92 22.85 30.24 24.73 C 29.60 24.73 28.32 24.72 27.68 24.72 C 28.66 22.82 29.17 20.73 30.14 18.83 Z" />
</g>
<g id="#dad1d3ff">
<path fill="#dad1d3" opacity="1.00" d=" M 38.91 20.88 C 38.46 18.98 40.65 18.89 41.30 20.38 C 40.70 20.51 39.51 20.76 38.91 20.88 Z" />
</g>
<g id="#313131ff">
<path fill="#313131" opacity="1.00" d=" M 0.96 22.06 C 7.13 22.47 13.33 21.68 19.48 22.42 C 20.06 25.29 20.79 28.15 20.88 31.09 C 16.78 31.37 12.94 29.74 8.96 29.09 C 5.28 28.61 1.53 25.89 0.96 22.06 Z" />
</g>
<g id="#b74f07ff">
<path fill="#b74f07" opacity="1.00" d=" M 32.59 26.11 C 34.12 24.93 35.69 23.80 37.22 22.62 C 38.51 24.82 36.67 26.42 34.90 27.46 C 34.32 27.12 33.17 26.45 32.59 26.11 Z" />
</g>
<g id="#da6308ff">
<path fill="#da6308" opacity="1.00" d=" M 21.53 32.74 C 22.31 32.24 23.09 31.75 23.89 31.27 C 25.34 31.66 26.85 31.75 28.35 31.80 C 28.27 35.98 28.19 40.61 25.92 44.25 C 23.81 44.92 21.75 43.99 20.01 42.85 C 20.37 41.15 20.75 39.43 21.60 37.89 C 21.93 38.46 22.58 39.59 22.90 40.15 C 24.21 38.28 24.52 35.96 24.97 33.78 C 23.87 34.73 22.90 35.83 22.13 37.08 C 21.99 35.62 21.80 34.18 21.53 32.74 Z" />
</g>
<g id="#fbcda2ff">
<path fill="#fbcda2" opacity="1.00" d=" M 22.13 37.08 C 22.90 35.83 23.87 34.73 24.97 33.78 C 24.52 35.96 24.21 38.28 22.90 40.15 C 22.58 39.59 21.93 38.46 21.60 37.89 L 22.13 37.08 Z" />
</g>
</svg>
